<?xml version="1.0" encoding="UTF-8" standalone="no"?>
<!-- Created with Inkscape (http://www.inkscape.org/) -->

<svg
   width="98.999992mm"
   height="87.917915mm"
   viewBox="0 0 98.999992 87.917915"
   version="1.1"
   id="svg1"
   xml:space="preserve"
   xmlns="http://www.w3.org/2000/svg"
   xmlns:svg="http://www.w3.org/2000/svg"><defs
     id="defs1"><style
       id="style1">
      .cls-1 {
        fill: maroon;
        stroke: #000;
        stroke-miterlimit: 10;
      }

      .cls-2 {
        fill: navy;
        stroke-width: 0px;
      }
    </style></defs><g
     id="layer1"
     transform="translate(-55.360574,-104.17166)"><rect
       style="fill:#dfdfdf;fill-opacity:1;stroke-width:0.254726"
       id="rect1"
       width="98.999992"
       height="87.917908"
       x="55.360573"
       y="104.17165"
       ry="14.94257" /><g
       id="g1"
       transform="matrix(0.26458333,0,0,0.26458333,61.045994,106.48814)"><path
         id="path5330"
         class="cls-2"
         d="m 186,0.04 c 71.14,1.22 138.28,9 145.75,23.12 C 345.81,49.72 235.06,261.91 186,313.24 Z" /><path
         id="path5330-2"
         data-name="path5330"
         class="cls-2"
         d="M 146.97,0.04 C 75.84,1.26 8.69,9.04 1.22,23.15 -12.84,49.71 97.91,261.9 146.97,313.23 Z" /><path
         id="rect5332"
         class="cls-1"
         d="m 162.92,0.5 h 7.13 c 4.37,0 7.92,3.29 7.92,7.35 v 301.87 c 0,4.06 -3.54,7.35 -7.92,7.35 h -7.13 c -4.37,0 -7.92,-3.29 -7.92,-7.35 V 7.85 c 0,-4.06 3.54,-7.35 7.92,-7.35 z" /></g></g></svg>
